<?xml version="1.0" encoding="utf-8"?>
<!-- Generator: Adobe Illustrator 27.6.1, SVG Export Plug-In . SVG Version: 6.00 Build 0)  -->
<svg version="1.1" id="Layer_1" xmlns="http://www.w3.org/2000/svg" xmlns:xlink="http://www.w3.org/1999/xlink" x="0px" y="0px"
	 viewBox="0 0 16 16" style="enable-background:new 0 0 16 16;" xml:space="preserve">
<style type="text/css">
	.st0{fill-rule:evenodd;clip-rule:evenodd;fill:#FFFFFF;}
</style>
<path class="st0" d="M6,12.5C6,12.8,6.2,13,6.5,13h8c0.3,0,0.5-0.2,0.5-0.5v-9C15,3.2,14.8,3,14.5,3h-8C6.2,3,6,3.2,6,3.5v2
	C6,5.8,5.8,6,5.5,6S5,5.8,5,5.5v-2C5,2.7,5.7,2,6.5,2h8C15.3,2,16,2.7,16,3.5v9c0,0.8-0.7,1.5-1.5,1.5h-8C5.7,14,5,13.3,5,12.5v-2
	C5,10.2,5.2,10,5.5,10S6,10.2,6,10.5V12.5z"/>
<path class="st0" d="M0.1,8.4C0,8.2,0,7.8,0.1,7.6c0,0,0,0,0,0l3-3c0.2-0.2,0.5-0.2,0.7,0C4,4.8,4,5.2,3.9,5.4L1.7,7.5h8.8
	C10.8,7.5,11,7.7,11,8c0,0.3-0.2,0.5-0.5,0.5H1.7l2.1,2.1c0.2,0.2,0.2,0.5,0,0.7c-0.2,0.2-0.5,0.2-0.7,0L0.1,8.4z"/>
</svg>
