<?xml version="1.0" encoding="utf-8"?>
<!-- Generator: Adobe Illustrator 27.6.1, SVG Export Plug-In . SVG Version: 6.00 Build 0)  -->
<svg version="1.1" id="Layer_1" xmlns="http://www.w3.org/2000/svg" xmlns:xlink="http://www.w3.org/1999/xlink" x="0px" y="0px"
	 viewBox="0 0 16 16" style="enable-background:new 0 0 16 16;" xml:space="preserve">
<style type="text/css">
	.st0{fill:#FFFFFF;}
</style>
<path class="st0" d="M0.5,9.9c0.3,0,0.5,0.2,0.5,0.5v2.5c0,0.6,0.4,1,1,1h12c0.6,0,1-0.4,1-1v-2.5c0-0.3,0.2-0.5,0.5-0.5
	s0.5,0.2,0.5,0.5v2.5c0,1.1-0.9,2-2,2H2c-1.1,0-2-0.9-2-2v-2.5C0,10.1,0.2,9.9,0.5,9.9"/>
<path class="st0" d="M7.6,11.9c0.2,0.2,0.5,0.2,0.7,0c0,0,0,0,0,0l3-3c0.2-0.2,0.2-0.5,0-0.7s-0.5-0.2-0.7,0l-2.1,2.1V1.5
	C8.5,1.2,8.3,1,8,1C7.7,1,7.5,1.2,7.5,1.5v8.8L5.4,8.1C5.2,8,4.8,8,4.6,8.1s-0.2,0.5,0,0.7L7.6,11.9z"/>
</svg>
