<?xml version="1.0" encoding="utf-8"?>
<!-- Generator: Adobe Illustrator 27.6.1, SVG Export Plug-In . SVG Version: 6.00 Build 0)  -->
<svg version="1.1" id="Layer_1" xmlns="http://www.w3.org/2000/svg" xmlns:xlink="http://www.w3.org/1999/xlink" x="0px" y="0px"
	 viewBox="0 0 16 16" style="enable-background:new 0 0 16 16;" xml:space="preserve">
<style type="text/css">
	.st0{fill:#FFFFFF;}
</style>
<path class="st0" d="M11,2H9v3h2V2z"/>
<path class="st0" d="M1.5,0h11.6c0.4,0,0.8,0.2,1.1,0.4l1.4,1.4C15.8,2.1,16,2.5,16,2.9v11.6c0,0.8-0.7,1.5-1.5,1.5l0,0h-13
	C0.7,16,0,15.3,0,14.5l0,0v-13C0,0.7,0.7,0,1.5,0 M1,1.5v13C1,14.8,1.2,15,1.5,15H2v-4.5C2,9.7,2.7,9,3.5,9h9c0.8,0,1.5,0.7,1.5,1.5
	V15h0.5c0.3,0,0.5-0.2,0.5-0.5V2.9c0-0.1-0.1-0.3-0.1-0.4l-1.4-1.4C13.3,1.1,13.2,1,13.1,1H13v4.5C13,6.3,12.3,7,11.5,7h-7
	C3.7,7,3,6.3,3,5.5V1H1.5C1.2,1,1,1.2,1,1.5 M4,5.5C4,5.8,4.2,6,4.5,6h7C11.8,6,12,5.8,12,5.5V1H4V5.5z M3,15h10v-4.5
	c0-0.3-0.2-0.5-0.5-0.5h-9C3.2,10,3,10.2,3,10.5V15z"/>
</svg>
