<?xml version="1.0" encoding="utf-8"?>
<!-- Generator: Adobe Illustrator 27.6.1, SVG Export Plug-In . SVG Version: 6.00 Build 0)  -->
<svg version="1.1" id="Layer_1" xmlns="http://www.w3.org/2000/svg" xmlns:xlink="http://www.w3.org/1999/xlink" x="0px" y="0px"
	 viewBox="0 0 16 16" style="enable-background:new 0 0 16 16;" xml:space="preserve">
<style type="text/css">
	.st0{fill:#FFFFFF;}
</style>
<path class="st0" d="M8,15c-3.9,0-7-3.1-7-7s3.1-7,7-7s7,3.1,7,7S11.9,15,8,15 M8,16c4.4,0,8-3.6,8-8s-3.6-8-8-8S0,3.6,0,8
	S3.6,16,8,16"/>
<path class="st0" d="M8.9,6.6L6.6,6.9L6.6,7.3L7,7.3c0.3,0.1,0.4,0.2,0.3,0.5l-0.7,3.5c-0.2,0.9,0.1,1.3,0.8,1.3
	c0.5,0,1.2-0.3,1.5-0.6l0.1-0.4c-0.2,0.2-0.5,0.2-0.7,0.2c-0.3,0-0.4-0.2-0.3-0.5L8.9,6.6z M9,4.5c0,0.6-0.4,1-1,1s-1-0.4-1-1
	s0.4-1,1-1S9,3.9,9,4.5"/>
</svg>
