<?xml version="1.0" encoding="utf-8"?>
<!-- Generator: Adobe Illustrator 27.6.1, SVG Export Plug-In . SVG Version: 6.00 Build 0)  -->
<svg version="1.1" id="Layer_1" xmlns="http://www.w3.org/2000/svg" xmlns:xlink="http://www.w3.org/1999/xlink" x="0px" y="0px"
	 viewBox="0 0 1200 1227" style="enable-background:new 0 0 1200 1227;" xml:space="preserve">
<style type="text/css">
	.st0{fill:#FFFFFF;}
</style>
<path class="st0" d="M280.2,706.8V455.1h75.2v250.5c0,30.6-5.3,54.8-15.9,72.8c-17.9,30.3-50.2,45.4-96.9,45.4s-78-12.2-94-36.7
	s-23.9-57.9-23.9-100.2v-8.3h71v8.3c0.6,27.8,3.7,47.4,9.2,58.7c5.4,11.3,17.1,17,35,17s29.5-6.2,35.2-18.5
	C278.5,736.6,280.2,724.2,280.2,706.8L280.2,706.8z"/>
<path class="st0" d="M640.5,741H508l-24.9,74h-78.6l128.4-359.9h85L745.3,815h-81.5L640.5,741L640.5,741z M619.5,679l-44.9-141.6
	L528.2,679H619.5z"/>
<path class="st0" d="M1041.4,657.7H866.6v92.5h199.2V815H793.1V455.1H1057v63.7H866.6v76.4h174.8L1041.4,657.7L1041.4,657.7z"/>
<polygon class="st0" points="422.7,615.1 455,524.5 405.4,453.5 405.4,590 "/>
<polygon class="st0" points="743.1,659.1 743.1,561.5 714.1,519.3 714.2,519.3 743.1,485.6 743.1,405.1 812.4,405.1 1160.9,0 
	1055,0 668.7,449 "/>
<polygon class="st0" points="371.5,405.1 144,79.7 306.6,79.7 534.1,405.1 635.7,405.1 357.3,0 0,0 278.4,405.1 "/>
<polygon class="st0" points="951.7,865 855.6,865 1055.1,1150.3 892.5,1150.3 693,865 627,865 603.8,791 543.9,791 543.8,791.4 
	842.7,1226.4 1200,1226.4 "/>
<path class="st0" d="M333.5,865l5.8-16.2c-8.2,5.2-16.7,9.4-25.4,12.8L0,1226.4h105.9L416.8,865H333.5L333.5,865z"/>
</svg>
