<?xml version="1.0" encoding="utf-8"?>
<!-- Generator: Adobe Illustrator 27.6.1, SVG Export Plug-In . SVG Version: 6.00 Build 0)  -->
<svg version="1.1" id="Layer_2_00000129190738299964292860000017539566795474086053_"
	 xmlns="http://www.w3.org/2000/svg" xmlns:xlink="http://www.w3.org/1999/xlink" x="0px" y="0px" viewBox="0 0 840 824"
	 style="enable-background:new 0 0 840 824;" xml:space="preserve">
<style type="text/css">
	.st0{fill:#011F5B;}
	.st1{fill:#FFFFFF;}
</style>
<path class="st0" d="M655,824H185C82.8,824,0,741.2,0,639V185C0,82.8,82.8,0,185,0h470c102.2,0,185,82.8,185,185v454
	C840,741.2,757.2,824,655,824z"/>
<g>
	<path class="st1" d="M527.2,405.5c29.9,12.2,71.8-38.7,76.9-41c21.1-13.2,49.9-13.9,74.6-0.8c17.2,9.1,30.2,23.6,36.8,40.8
		c6.8,17.7,5.8,36.2-2.5,51.9c-2.7,5.1-6.1,9.8-10.2,13.9c-21.1,21.4-56.4,25.4-85.9,9.7c-0.1,0-0.2-0.1-0.3-0.2
		c0.2,0.3,0.2,0.4,0.2,0.4l-113.4-59.6l-0.1,0l7-21.2C519.7,402.7,525.8,404.8,527.2,405.5L527.2,405.5z M626.9,461.1
		c21.2,11.3,46.2,8.9,60.7-5.8c2.6-2.6,4.8-5.6,6.5-8.9c5.5-10.3,6-22.5,1.4-34.4c-4.7-12.4-14.2-22.9-26.8-29.6
		c-21.2-11.3-46.2-8.9-60.7,5.8c-2.6,2.6-4.8,5.6-6.5,8.9c-5.5,10.3-6,22.5-1.5,34.4C604.8,443.9,614.3,454.4,626.9,461.1
		L626.9,461.1z"/>
	<path class="st1" d="M439.4,609.6c-14.2-25-13.9-54.5-0.4-76.1c3.2-7.8,46.5-43.2,36.1-75.6c-5.4-10.4-97-289.2-97-289.2l1.1-13.7
		L501.6,397l-12,36.7l62.3,107.5c0.7,1.1,1.4,2.2,2.1,3.4c16.7,29.4,13.5,65-7.8,86.7l0,0c-3.9,3.9-8.3,7.3-13,10
		c-15.5,8.8-33.9,10.2-51.9,4C463.8,639.2,449,626.6,439.4,609.6L439.4,609.6z M485.3,408.6c4.4-4.4,4.3-11.5-0.1-15.9
		c-4.4-4.4-11.6-4.3-15.9,0.1c-4.4,4.4-4.3,11.5,0.1,15.9C473.8,413.1,480.9,413.1,485.3,408.6z M488.3,625.2
		c12,4.2,24.2,3.3,34.3-2.4c3.1-1.8,5.9-3.9,8.4-6.4c14.6-14.9,16.5-40,4.5-61.2c-7-12.4-17.8-21.6-30.3-26
		c-12-4.2-24.2-3.4-34.3,2.4c-3.1,1.8-5.9,3.9-8.4,6.4c-14.6,14.9-16.5,40-4.5,61.2C465,611.5,475.8,620.8,488.3,625.2L488.3,625.2z
		"/>
	<path class="st1" d="M270.5,322.4c-19.9-6.3-32.5-10.3-32.5-10.3l-14.5,0.9l39.9,19.5L270.5,322.4z"/>
	<path class="st1" d="M426,411.6l28.6,13.9c-3.6-10.4-7.8-23-12.5-36.9L426,411.6z"/>
	<path class="st1" d="M433.1,361.9L314.9,530.8l-109.1-76.4l175.1-250.1c-2-6.2-3.9-11.8-5.5-16.8L194.1,446.2l0,0L120,552.1l0,0
		l132.3,92.7l0,0l0,0l74.1-105.9l112.2-160.3C436.9,373.2,435,367.6,433.1,361.9z"/>
	<polygon class="st1" points="399.9,177.1 401.5,174.8 510.6,251.2 468.1,311.9 475.4,326.3 530.3,247.8 398,155.1 392.6,162.7 	"/>
</g>
</svg>
