<?xml version="1.0" encoding="UTF-8"?>
<svg id="Layer_1" data-name="Layer 1" xmlns="http://www.w3.org/2000/svg" viewBox="0 0 1200 1227">
  <path d="m280.18,706.81v-251.71h75.2v250.49c0,30.6-5.29,54.85-15.87,72.75-17.91,30.27-50.21,45.41-96.92,45.41s-78.04-12.25-93.99-36.74c-15.95-24.49-23.93-57.9-23.93-100.22v-8.3h71.04v8.3c.65,27.83,3.7,47.41,9.16,58.72,5.45,11.31,17.13,16.97,35.03,16.97s29.46-6.18,35.16-18.55c3.42-7.32,5.13-19.69,5.13-37.11Z"/>
  <path d="m640.53,740.99h-132.57l-24.9,73.97h-78.61l128.42-359.86h84.96l127.44,359.86h-81.54l-23.19-73.97Zm-21-62.01l-44.92-141.6-46.39,141.6h91.31Z"/>
  <path d="m1041.41,657.74h-174.8v92.53h199.22v64.7h-272.71v-359.86h263.92v63.72h-190.43v76.42h174.8v62.5Z"/>
  <polygon points="422.67 615.13 455 524.53 405.37 453.54 405.37 589.96 422.67 615.13"/>
  <polygon points="743.12 659.12 743.12 561.46 714.14 519.28 714.16 519.28 743.12 485.63 743.12 405.1 812.39 405.1 1160.89 0 1055.03 0 668.72 449.05 743.12 659.12"/>
  <polygon points="371.51 405.1 144.01 79.69 306.61 79.69 534.1 405.1 635.68 405.1 357.33 0 0 0 278.35 405.1 371.51 405.1"/>
  <polygon points="951.67 864.97 855.6 864.97 1055.08 1150.3 892.48 1150.3 692.99 864.97 627 864.97 603.8 790.99 543.88 790.99 543.76 791.36 842.67 1226.37 1200 1226.37 951.67 864.97"/>
  <path d="m333.51,864.97l5.78-16.21c-8.19,5.22-16.74,9.42-25.42,12.78L0,1226.37h105.87l310.91-361.4h-83.26Z"/>
</svg>